<svg width="25" height="28" viewBox="0 0 25 28" fill="none" xmlns="http://www.w3.org/2000/svg">
<path d="M19.9557 18.0827L15.8422 14L19.9558 9.91731L23.9577 12.2088C25.3474 13.0046 25.3474 14.9954 23.9577 15.7912L19.9557 18.0827Z" fill="black"/>
<path d="M19.0215 18.6177L15.1056 14.7312L1.76244 27.9744C2.207 28.0449 2.68336 27.9729 3.12471 27.7202L19.0215 18.6177Z" fill="black"/>
<path d="M0.749107 27.5179L14.369 14L0.749064 0.482139C0.299422 0.851819 0 1.40995 0 2.071V25.929C0 26.5901 0.299441 27.1482 0.749107 27.5179Z" fill="black"/>
<path d="M1.76238 0.0256211C2.20695 -0.0448928 2.68333 0.0270669 3.12471 0.279801L19.0215 9.38234L15.1056 13.2689L1.76238 0.0256211Z" fill="black"/>
</svg>
