<svg width="135" height="34" viewBox="0 0 135 34" fill="none" xmlns="http://www.w3.org/2000/svg">
<path d="M65.4778 24.6143L67.1447 20.0374H75.7517L77.3883 24.6143H82.3283L74.8425 4.03345H68.2357L60.75 24.6143H65.4778ZM69.7814 12.7265L71.327 8.08818H71.6301L73.1151 12.7265L74.2667 15.9212H68.6297L69.7814 12.7265Z" fill="white"/>
<path d="M88.1156 24.6143V15.8597C88.1156 13.5252 89.0551 12.8187 91.2372 12.8187C93.5405 12.8187 94.2375 13.5866 94.2375 15.7369V24.6143H98.7835V14.8153C98.7835 11.5286 97.0864 8.85612 93.1162 8.85612C90.4492 8.85612 88.8127 10.1155 87.9944 11.8665H87.8126V9.1633H83.6V24.6143H88.1156Z" fill="white"/>
<path d="M107.419 24.9215C109.662 24.9215 111.389 23.9999 112.177 22.3412H112.329V24.6143H116.541V4.03345H112.026V11.1907H111.844C111.147 9.90052 109.753 8.85612 107.419 8.85612C103.267 8.85612 100.812 12.02 100.812 16.9042C100.812 21.7575 103.115 24.9215 107.419 24.9215ZM105.328 16.9042C105.328 14.0781 106.055 12.788 108.692 12.788C110.844 12.788 112.026 13.5559 112.026 15.6447V18.1329C112.026 20.2217 110.844 20.9896 108.692 20.9896C106.055 20.9896 105.328 19.6995 105.328 16.9042Z" fill="white"/>
<path d="M122.209 29.8363C125.209 29.8363 126.906 28.8533 128.21 25.6894L134.998 9.1633H129.937L127.785 15.614L126.846 18.5936H126.512L125.421 15.614L122.936 9.1633H117.875L124.27 23.9692L123.997 24.5529C123.542 25.5358 123.118 25.6894 121.966 25.6894H119.421V29.4984C120.057 29.652 121.178 29.8363 122.209 29.8363Z" fill="white"/>
<path d="M13.3013 24.2941C13.3013 28.017 10.3237 31.035 6.65067 31.035C2.97761 31.035 0 28.017 0 24.2941C0 20.5712 2.97761 17.5532 6.65067 17.5532C10.3237 17.5532 13.3013 20.5712 13.3013 24.2941Z" fill="#F7B731"/>
<path d="M9.23316 12.5253C7.33104 9.18601 8.26757 5.02862 11.325 3.23949C14.3824 1.45036 18.4028 2.70699 20.305 6.04626L29.0934 21.4747C30.9955 24.8139 30.0589 28.9713 27.0015 30.7605C23.9442 32.5496 19.9237 31.293 18.0215 27.9537L9.23316 12.5253Z" fill="#F7B731"/>
<path d="M26.3347 12.5253C24.4326 9.18601 25.3691 5.02862 28.4265 3.23949C31.4839 1.45036 35.5044 2.70699 37.4065 6.04626L46.1949 21.4747C48.097 24.8139 47.1605 28.9713 44.1031 30.7605C41.0457 32.5496 37.0252 31.293 35.1231 27.9537L26.3347 12.5253Z" fill="#F7B731"/>
</svg>
