<svg width="22" height="23" viewBox="0 0 22 23" fill="none" xmlns="http://www.w3.org/2000/svg">
<path fill-rule="evenodd" clip-rule="evenodd" d="M2.0625 11.9398C2.0625 7.00377 6.06395 3.00232 11 3.00232C15.936 3.00232 19.9375 7.00377 19.9375 11.9398C19.9375 16.8759 15.936 20.8773 11 20.8773C6.06395 20.8773 2.0625 16.8759 2.0625 11.9398Z" fill="#46AAF2"/>
<path fill-rule="evenodd" clip-rule="evenodd" d="M2.0625 11.9398C2.0625 7.00377 6.06395 3.00232 11 3.00232C15.936 3.00232 19.9375 7.00377 19.9375 11.9398C19.9375 16.8759 15.936 20.8773 11 20.8773C6.06395 20.8773 2.0625 16.8759 2.0625 11.9398Z" fill="black" fill-opacity="0.2"/>
<path d="M14.7812 9.87732L9.73672 14.6898L7.21875 12.2836" stroke="white" stroke-width="1.8" stroke-linecap="round" stroke-linejoin="round"/>
</svg>
