<svg width="56" height="56" viewBox="0 0 56 56" fill="none" xmlns="http://www.w3.org/2000/svg">
<circle cx="28" cy="28" r="27.5" stroke="white"/>
<path d="M35.028 36V32.49H28.372L25.564 32.542C25.564 31.71 26.63 31.164 28.06 30.514L30.686 29.37C32.948 28.356 35.08 26.822 35.08 23.806C35.08 20.66 33.234 18.32 28.632 18.32C23.458 18.32 21.378 21.102 21.378 24.482V24.898H25.278V24.456C25.278 22.584 25.798 21.882 28.32 21.882C30.634 21.882 31.206 22.584 31.206 23.832C31.206 24.976 30.66 25.548 29.126 26.276L26.11 27.706C23.692 28.876 21.404 30.28 21.404 33.66V36H35.028Z" fill="white"/>
</svg>
