<svg width="56" height="56" viewBox="0 0 56 56" fill="none" xmlns="http://www.w3.org/2000/svg">
<circle cx="28" cy="28" r="27.5" stroke="white"/>
<path d="M28.138 36.26C32.532 36.26 35.314 34.596 35.314 31.216C35.314 28.642 33.806 27.134 31.31 26.9V26.744C33.598 26.484 34.586 25.08 34.586 23.026C34.586 19.906 32.09 18.32 27.982 18.32C23.51 18.32 20.936 20.452 20.936 23.91V24.196H24.758V23.962C24.758 22.376 25.564 21.908 27.878 21.908C29.698 21.908 30.686 22.376 30.686 23.754C30.686 25.158 30.088 25.47 28.528 25.47H25.278V28.642H28.944C30.634 28.642 31.362 28.98 31.362 30.696C31.362 32.308 30.27 32.672 28.138 32.672C25.356 32.672 24.758 32.204 24.758 30.618V30.098H20.936V30.67C20.936 34.128 22.886 36.26 28.138 36.26Z" fill="white"/>
</svg>
